<svg xmlns="http://www.w3.org/2000/svg" version="1.1" viewBox="-5.0 -10.0 110.0 110.0">
 <path d="m90.391 75.531-7.3906-11.82v-41.621c0-1.6992-1.3789-3.0898-3.0898-3.0898h-59.82c-1.6992 0-3.0898 1.3789-3.0898 3.0898v41.629l-7.3906 11.812c-0.69922 1.1211-0.73047 2.4688-0.10156 3.6289 0.64063 1.1484 1.8086 1.8398 3.1289 1.8398h74.723c1.3203 0 2.4883-0.69141 3.1289-1.8398 0.63281-1.1484 0.58984-2.5117-0.097656-3.6289zm-71.391-53.441c0-0.60156 0.48828-1.0898 1.0898-1.0898h59.828c0.60156 0 1.0898 0.48828 1.0898 1.0898l0.003907 40.91h-62.012zm20.391 56.91 1.1992-3.6094c0.078125-0.23828 0.30078-0.39062 0.55078-0.39062h17.73c0.25 0 0.46875 0.16016 0.55078 0.39062l1.1992 3.6094zm49.34-0.80859c-0.28125 0.50781-0.78906 0.80859-1.3711 0.80859h-24.641l-1.4102-4.2383c-0.34766-1.0508-1.3398-1.7617-2.4492-1.7617h-17.719c-1.1094 0-2.0898 0.71094-2.4414 1.7617l-1.418 4.2383h-24.641c-0.57812 0-1.1016-0.30078-1.3789-0.80859-0.28125-0.51172-0.26953-1.1016 0.039062-1.6016l7.25-11.59h62.891l7.2383 11.59c0.32031 0.48828 0.33203 1.0898 0.050781 1.6016zm-30.02-42.902c0.39062 0.39063 0.39062 1.0195 0 1.4102l-16 16c-0.19922 0.19922-0.44922 0.30078-0.71094 0.30078s-0.51172-0.10156-0.71094-0.28906c-0.39062-0.39063-0.39062-1.0195 0-1.4102l16-16c0.39063-0.40234 1.0312-0.40234 1.4219-0.011719zm-17.422 7.4219c-0.39062-0.39063-0.39062-1.0195 0-1.4102l6-6c0.39063-0.39062 1.0195-0.39062 1.4102 0s0.39062 1.0195 0 1.4102l-6 6c-0.1875 0.1875-0.4375 0.28906-0.69922 0.28906s-0.51172-0.10156-0.71094-0.28906zm17.422 2.5781c0.39062 0.39063 0.39062 1.0195 0 1.4102l-6 6c-0.19922 0.19922-0.44922 0.30078-0.71094 0.30078s-0.51172-0.10156-0.71094-0.28906c-0.39062-0.39063-0.39062-1.0195 0-1.4102l6-6c0.39063-0.40234 1.0312-0.40234 1.4219-0.011719zm-9.7109-21.277c0-0.55078 0.46094-1.0117 1.0117-1.0117s1.0117 0.46094 1.0117 1.0117-0.46094 1.0117-1.0117 1.0117c-0.55078-0.003907-1.0117-0.46484-1.0117-1.0117z"/>
</svg>
