<svg xmlns="http://www.w3.org/2000/svg" version="1.1" viewBox="-5.0 -10.0 110.0 110.0">
 <path d="m41.496 58.504c-0.38281-0.38281-0.38281-1 0-1.3828l15.625-15.625c0.38281-0.38281 1-0.38281 1.3828 0 0.38281 0.38281 0.38281 1 0 1.3828l-15.625 15.625c-0.19141 0.19141-0.44141 0.28516-0.69141 0.28516s-0.5-0.09375-0.69141-0.28516zm0.69141-9.0898c0.25 0 0.5-0.09375 0.69141-0.28516l6.25-6.25c0.38281-0.38281 0.38281-1 0-1.3828-0.38281-0.38281-1-0.38281-1.3828 0l-6.25 6.25c-0.38281 0.38281-0.38281 1 0 1.3828 0.19141 0.19141 0.44141 0.28516 0.69141 0.28516zm14.934 1.457-6.25 6.25c-0.38281 0.38281-0.38281 1 0 1.3828 0.19141 0.19141 0.44141 0.28516 0.69141 0.28516s0.5-0.09375 0.69141-0.28516l6.25-6.25c0.38281-0.38281 0.38281-1 0-1.3828-0.38281-0.37891-1-0.37891-1.3828 0zm15.73-33.676v65.613c0 3.125-2.543 5.6719-5.6719 5.6719l-34.359-0.003907c-3.125 0-5.6719-2.543-5.6719-5.6719v-65.609c0-3.125 2.543-5.6719 5.6719-5.6719h34.359c3.1289 0 5.6719 2.543 5.6719 5.6719zm-31.25-3.7188v1.2852c0 0.79688 0.64844 1.4492 1.4492 1.4492h13.898c0.79688 0 1.4492-0.64844 1.4492-1.4492v-1.2852zm29.297 3.7188c0-2.0469-1.668-3.7188-3.7188-3.7188h-6.8281v1.2852c0 1.875-1.5273 3.4023-3.4023 3.4023h-13.898c-1.875 0-3.4023-1.5273-3.4023-3.4023v-1.2852h-6.8281c-2.0469 0-3.7188 1.668-3.7188 3.7188v65.613c0 2.0469 1.668 3.7188 3.7188 3.7188h34.363c2.0469 0 3.7188-1.668 3.7188-3.7188zm-13.086 63.078h-15.625c-0.53906 0-0.97656 0.4375-0.97656 0.97656s0.4375 0.97656 0.97656 0.97656h15.625c0.53906 0 0.97656-0.4375 0.97656-0.97656s-0.4375-0.97656-0.97656-0.97656z"/>
</svg>
