<svg xmlns="http://www.w3.org/2000/svg" version="1.1" viewBox="-5.0 -10.0 110.0 110.0">
 <path d="m58.711 39.289c0.39062 0.39063 0.39062 1.0195 0 1.4102l-16 16c-0.19922 0.19922-0.44922 0.30078-0.71094 0.30078s-0.51172-0.10156-0.71094-0.28906c-0.39062-0.39063-0.39062-1.0195 0-1.4102l16-16c0.39063-0.40234 1.0312-0.40234 1.4219-0.011719zm-16.711 7.7109c0.26172 0 0.51172-0.10156 0.71094-0.28906l6-6c0.39062-0.39063 0.39062-1.0195 0-1.4102-0.39063-0.39062-1.0195-0.39062-1.4102 0l-6 6c-0.39062 0.39062-0.39062 1.0195 0 1.4102 0.1875 0.1875 0.4375 0.28906 0.69922 0.28906zm15.289 2.2891-6 6c-0.39062 0.39063-0.39062 1.0195 0 1.4102 0.19922 0.19922 0.44922 0.30078 0.71094 0.30078s0.51172-0.10156 0.71094-0.28906l6-6c0.39062-0.39063 0.39062-1.0195 0-1.4102-0.39063-0.39062-1.0312-0.40234-1.4219-0.011719zm23.711-35.258v71.93c0 2.7812-2.2617 5.0312-5.0312 5.0312l-51.938-0.003907c-2.7695 0.011719-5.0312-2.25-5.0312-5.0195v-71.938c0-2.7695 2.2617-5.0312 5.0312-5.0312h51.93c2.7773 0 5.0391 2.2617 5.0391 5.0312zm-2 0c0-1.6719-1.3594-3.0312-3.0312-3.0312h-51.938c-1.6719 0-3.0312 1.3594-3.0312 3.0312v71.93c0 1.6719 1.3594 3.0312 3.0312 3.0312h51.93c1.6719 0 3.0312-1.3594 3.0312-3.0312l-0.003907-71.93zm-28.988 0.98828c0.55078 0 1.0117-0.46094 1.0117-1.0117-0.003907-0.54687-0.46484-1.0078-1.0117-1.0078-0.55078 0-1.0117 0.46094-1.0117 1.0117 0 0.54688 0.46094 1.0078 1.0117 1.0078zm7.9883 67.98h-16c-0.55078 0-1 0.44922-1 1s0.44922 1 1 1h16c0.55078 0 1-0.44922 1-1s-0.44922-1-1-1z"/>
</svg>
