<?xml version="1.0" encoding="UTF-8"?>
<!DOCTYPE svg PUBLIC "-//W3C//DTD SVG 1.1//EN" "http://www.w3.org/Graphics/SVG/1.1/DTD/svg11.dtd">
<svg xmlns="http://www.w3.org/2000/svg" version="1.1" width="90px" height="109px" style="shape-rendering:geometricPrecision; text-rendering:geometricPrecision; image-rendering:optimizeQuality; fill-rule:evenodd; clip-rule:evenodd" xmlns:xlink="http://www.w3.org/1999/xlink">
<g><path style="opacity:0.958" fill="#293950" d="M 24.5,-0.5 C 26.8333,-0.5 29.1667,-0.5 31.5,-0.5C 34.2364,1.8579 35.0698,4.8579 34,8.5C 30.287,12.4875 26.6203,12.4875 23,8.5C 22.068,5.17691 22.568,2.17691 24.5,-0.5 Z"/></g>
<g><path style="opacity:0.954" fill="#293950" d="M 41.5,-0.5 C 43.5,-0.5 45.5,-0.5 47.5,-0.5C 51.4327,3.29048 51.4327,7.12382 47.5,11C 37.3597,11.7776 33.5263,16.9443 36,26.5C 38.8546,30.3437 42.6879,32.177 47.5,32C 50.8645,35.0262 51.3645,38.5262 49,42.5C 46,43.8333 43,43.8333 40,42.5C 39.2695,37.8315 37.4362,33.6649 34.5,30C 30.9651,28.2936 27.2985,26.9603 23.5,26C 22.0048,22.6343 22.3382,19.4677 24.5,16.5C 33.4533,16.046 38.2867,11.3794 39,2.5C 39.6979,1.30943 40.5313,0.309426 41.5,-0.5 Z"/></g>
<g><path style="opacity:0.89" fill="#ff4647" d="M 57.5,-0.5 C 59.8333,-0.5 62.1667,-0.5 64.5,-0.5C 66.6982,2.57193 67.0315,5.90526 65.5,9.5C 62.373,11.0994 59.0397,12.266 55.5,13C 51.8813,16.3394 49.8813,20.5061 49.5,25.5C 46.1667,28.1667 42.8333,28.1667 39.5,25.5C 37.7575,21.7787 38.4241,18.6121 41.5,16C 50.0158,15.4842 54.5158,10.9842 55,2.5C 56.045,1.62656 56.8783,0.626561 57.5,-0.5 Z"/></g>
<g><path style="opacity:0.95" fill="#293950" d="M 57.5,15.5 C 66.6102,15.1445 68.9435,18.9779 64.5,27C 54.4151,27.7604 52.0818,23.9271 57.5,15.5 Z"/></g>
<g><path style="opacity:0.954" fill="#293950" d="M 25.5,31.5 C 34.0875,31.3975 36.4209,35.0642 32.5,42.5C 24.5519,45.3815 21.3852,42.7148 23,34.5C 24.045,33.6266 24.8783,32.6266 25.5,31.5 Z"/></g>
<g><path style="opacity:0.964" fill="#2a3850" d="M 57.5,31.5 C 66.3058,31.464 68.6391,35.2974 64.5,43C 54.3883,43.9456 52.055,40.1123 57.5,31.5 Z"/></g>
<g><path style="opacity:0.963" fill="#293950" d="M 43.5,54.5 C 50.0351,56.5017 50.0351,58.8351 43.5,61.5C 45.6499,63.1491 47.6499,64.9824 49.5,67C 51.1341,67.4935 52.8008,67.6602 54.5,67.5C 54.5,65.8333 54.5,64.1667 54.5,62.5C 56.5,62.5 58.5,62.5 60.5,62.5C 60.5,60.1667 60.5,57.8333 60.5,55.5C 62.5,55.5 64.5,55.5 66.5,55.5C 66.5,59.5 66.5,63.5 66.5,67.5C 67.5,67.5 68.5,67.5 69.5,67.5C 69.5,65.8333 69.5,64.1667 69.5,62.5C 71.5,62.5 73.5,62.5 75.5,62.5C 75.8333,69.1667 76.1667,69.1667 76.5,62.5C 78.1667,62.5 79.8333,62.5 81.5,62.5C 81.8333,69.1667 82.1667,69.1667 82.5,62.5C 84.1667,62.5 85.8333,62.5 87.5,62.5C 87.6641,65.1873 87.4974,67.854 87,70.5C 85.5587,71.87 83.892,72.87 82,73.5C 76.6267,72.8058 71.1267,72.6392 65.5,73C 62.7683,72.6019 60.935,71.1019 60,68.5C 59.8333,71.3333 58.3333,72.8333 55.5,73C 52.173,73.5347 49.0063,73.0347 46,71.5C 43.3729,72.9164 40.5395,73.5831 37.5,73.5C 33.0885,72.6266 28.7552,72.2933 24.5,72.5C 22.6698,72.7763 21.0032,73.443 19.5,74.5C 17.9429,77.8774 15.2762,79.2107 11.5,78.5C 8.36328,78.949 5.86328,77.949 4,75.5C 3.50166,72.1832 3.33499,68.8499 3.5,65.5C 5.16667,65.5 6.83333,65.5 8.5,65.5C 8.33669,67.8568 8.50335,70.1902 9,72.5C 10.6995,73.4061 12.5328,73.7394 14.5,73.5C 14.335,70.1501 14.5017,66.8168 15,63.5C 16.6995,62.5939 18.5328,62.2606 20.5,62.5C 20.8333,69.1667 21.1667,69.1667 21.5,62.5C 23.1667,62.5 24.8333,62.5 26.5,62.5C 26.8333,69.1667 27.1667,69.1667 27.5,62.5C 29.5,62.5 31.5,62.5 33.5,62.5C 33.5,64.1667 33.5,65.8333 33.5,67.5C 36.1873,67.6641 38.854,67.4974 41.5,67C 37.1994,65.2146 35.1994,62.0479 35.5,57.5C 38.4432,57.0198 41.1098,56.0198 43.5,54.5 Z"/></g>
<g><path style="opacity:0.992" fill="#2a3850" d="M 78.5,53.5 C 79.8333,53.5 81.1667,53.5 82.5,53.5C 82.5,56.1667 82.5,58.8333 82.5,61.5C 79.1667,61.5 75.8333,61.5 72.5,61.5C 72.5,59.8333 72.5,58.1667 72.5,56.5C 74.5,56.5 76.5,56.5 78.5,56.5C 78.5,55.5 78.5,54.5 78.5,53.5 Z"/></g>
<g><path style="opacity:0.802" fill="#ff4648" d="M 48.5,74.5 C 51.8333,74.5 55.1667,74.5 58.5,74.5C 58.5,76.8333 58.5,79.1667 58.5,81.5C 56.8333,81.5 55.1667,81.5 53.5,81.5C 53.5,80.5 53.5,79.5 53.5,78.5C 51.8333,78.5 50.1667,78.5 48.5,78.5C 48.5,77.1667 48.5,75.8333 48.5,74.5 Z"/></g>
<g><path style="opacity:0.456" fill="#919191" d="M 6.5,88.5 C 10.1068,88.3785 12.2734,90.0452 13,93.5C 13.3333,92.8333 13.6667,92.1667 14,91.5C 14.4226,92.9561 15.2559,93.4561 16.5,93C 15.0072,91.8438 15.1739,91.0104 17,90.5C 18.6532,90.8198 19.6532,91.8198 20,93.5C 20.3076,92.6919 20.8076,92.0253 21.5,91.5C 22.2575,92.8114 23.2575,93.3114 24.5,93C 23.2888,92.1072 23.2888,91.2739 24.5,90.5C 25.4147,91.3279 26.0814,92.3279 26.5,93.5C 24.3053,94.735 22.1387,95.735 20,96.5C 19.0497,95.9777 18.2164,95.311 17.5,94.5C 17.1667,95.1667 16.8333,95.8333 16.5,96.5C 15.4016,95.3845 14.2349,95.3845 13,96.5C 12.0546,96.0946 11.3879,95.428 11,94.5C 8.56738,95.3519 5.73405,96.0186 2.5,96.5C 2.33087,91.9593 2.99753,91.626 4.5,95.5C 5.08605,95.2907 5.58605,94.9574 6,94.5C 6.49546,92.5273 6.66212,90.5273 6.5,88.5 Z"/></g>
<g><path style="opacity:0.534" fill="#929292" d="M 29.5,91.5 C 30.5,94.1667 31.5,94.1667 32.5,91.5C 33.9311,91.1193 34.7645,90.1193 35,88.5C 36,89.8333 37,89.8333 38,88.5C 38.4828,89.448 38.6495,90.448 38.5,91.5C 40.451,91.2267 41.951,91.8934 43,93.5C 44.1369,92.636 45.4702,91.636 47,90.5C 47.6667,91.1667 48.3333,91.8333 49,92.5C 50.5494,89.9974 52.2161,89.9974 54,92.5C 54.8525,90.8753 55.8525,90.5419 57,91.5C 57.6987,93.0738 57.3654,94.4071 56,95.5C 52.0462,95.4371 48.0462,95.1038 44,94.5C 41.3048,97.1339 39.4714,97.1339 38.5,94.5C 35.5301,94.4099 32.5301,94.5765 29.5,95C 28.2089,93.7083 28.2089,92.5417 29.5,91.5 Z M 29.5,91.5 C 30.5,91.5 31.5,91.5 32.5,91.5C 31.5,94.1667 30.5,94.1667 29.5,91.5 Z"/></g>
<g><path style="opacity:0.548" fill="#919191" d="M 67.5,87.5 C 70.0176,88.6937 70.0176,89.8604 67.5,91C 68.3333,91.8333 69.1667,92.6667 70,93.5C 71.2365,91.8956 72.4032,90.229 73.5,88.5C 75.0708,91.0934 77.4041,92.0934 80.5,91.5C 80.3505,92.552 80.5172,93.552 81,94.5C 81.6322,92.4687 82.7988,90.802 84.5,89.5C 87.4915,92.6932 86.8248,94.8599 82.5,96C 80.5,96.6667 78.5,96.6667 76.5,96C 77.6956,95.3457 77.6956,94.8457 76.5,94.5C 71.6236,94.6388 66.6236,94.9721 61.5,95.5C 59.7172,94.6518 59.2172,93.3185 60,91.5C 61,90.1667 62,90.1667 63,91.5C 63.3333,90.5 63.6667,89.5 64,88.5C 65.313,89.2871 66.4797,88.9538 67.5,87.5 Z M 65.5,91.5 C 66.2891,91.7828 66.9558,92.2828 67.5,93C 66.184,93.5281 65.5173,93.0281 65.5,91.5 Z"/></g>
</svg>
