<svg xmlns="http://www.w3.org/2000/svg" xmlns:xlink="http://www.w3.org/1999/xlink" version="1.1" x="0px" y="0px" viewBox="0 0 1024 1024" style="enable-background:new 0 0 1024 1024;" xml:space="preserve"><g><g><g><path d="M729,852.5c-0.2,16.8-10.2,32.3-25.9,38.8c-6,2.5-12.2,3.1-18.6,3.1c-11.7,0-23.4,0-35.1,0     c-47.8,0-95.7,0-143.5,0c-46.3,0-92.6,0-138.9,0c-9.8,0-19.6,0-29.4,0c-23.6-0.1-42.4-18.6-42.7-42.2c-0.2-17.4,0-34.8,0-52.2     c0-39.8,0-79.7,0-119.5c0-51.7,0-103.4,0-155c0-52.4,0-104.9,0-157.3c0-42.7,0-85.4,0-128c0-21.9,0-43.8,0-65.8     c0-18,8.7-34.6,25.9-41.7c10-4.1,21.4-3.1,32.1-3.1c42.1,0,84.2,0,126.2,0c50.4,0,100.8,0,151.2,0c15.5,0,31.1,0,46.6,0     c3.1,0,6.2,0,9.3,0c11.4,0.1,22.2,4.2,30.3,12.3c9.7,9.7,12.3,22,12.3,35.1c0,9,0,17.9,0,26.9c0,35.3,0,70.7,0,106     c0,49.8,0,99.6,0,149.4c0,53.4,0,106.7,0,160.1c0,46.1,0,92.1,0,138.2c0,27.9,0,55.8,0,83.7C729,845,729,848.7,729,852.5     c0,12.9,20,12.9,20,0c0-15.8,0-31.5,0-47.3c0-39.7,0-79.4,0-119c0-52.1,0-104.2,0-156.2c0-53.3,0-106.6,0-159.9     c0-43.3,0-86.6,0-129.9c0-22.1,0-44.1,0-66.2c0-23.4-11.2-45.5-32.2-56.8c-13.7-7.4-27.9-7.6-42.8-7.6c-41.4,0-82.9,0-124.3,0     c-51.3,0-102.6,0-153.9,0c-16.1,0-32.1,0-48.2,0c-3.3,0-6.7,0-10,0c-13.8,0.1-27.1,4.3-38,12.6c-16.8,12.9-24.6,32-24.6,52.8     c0,8.2,0,16.4,0,24.6c0,34.8,0,69.7,0,104.5c0,50.1,0,100.1,0,150.2c0,54.1,0,108.1,0,162.2c0,46.9,0,93.8,0,140.7     c0,28.2,0,56.4,0,84.6c0,6.8-0.2,13.6,0.8,20.3c4.5,31,32.2,52.3,62.8,52.3c32.6,0.1,65.2,0,97.8,0c52.9,0,105.9,0,158.8,0     c30.4,0,60.9,0.3,91.3,0c34.2-0.3,62-27.6,62.5-61.9C749.2,839.6,729.2,839.6,729,852.5z"/></g></g><g><g><path d="M294.6,749c14.4,0,28.8,0,43.3,0c34.6,0,69.2,0,103.9,0c41.9,0,83.8,0,125.6,0c36.2,0,72.4,0,108.6,0     c17.5,0,35.1,0.6,52.6,0c0.3,0,0.5,0,0.8,0c12.9,0,12.9-20,0-20c-14.4,0-28.8,0-43.3,0c-34.6,0-69.2,0-103.9,0     c-41.9,0-83.8,0-125.6,0c-36.2,0-72.4,0-108.6,0c-17.5,0-35.1-0.6-52.6,0c-0.3,0-0.5,0-0.8,0C281.7,729,281.7,749,294.6,749     L294.6,749z"/></g></g><g><g><path d="M477.4,831.7c23.1,0,46.2,0,69.3,0c12.9,0,12.9-20,0-20c-23.1,0-46.2,0-69.3,0     C464.5,811.7,464.5,831.7,477.4,831.7L477.4,831.7z"/></g></g><g><g><path d="M396,399c14.3-20.8,28.6-41.6,42.9-62.4c22.8-33.2,45.6-66.3,68.4-99.5c5.2-7.6,10.5-15.2,15.7-22.8     c3.1-4.5,0.8-11.1-3.6-13.7c-5-2.9-10.6-0.9-13.7,3.6c-14.3,20.8-28.6,41.6-42.9,62.4c-22.8,33.2-45.6,66.3-68.4,99.5     c-5.2,7.6-10.5,15.2-15.7,22.8c-3.1,4.5-0.8,11.1,3.6,13.7C387.2,405.5,392.9,403.5,396,399L396,399z"/></g></g><g><g><path d="M377.2,272.4c13.3-19.4,26.7-38.8,40-58.1c3.1-4.5,0.8-11.1-3.6-13.7c-5-2.9-10.6-0.9-13.7,3.6     c-13.3,19.4-26.7,38.8-40,58.1c-3.1,4.5-0.8,11.1,3.6,13.7C368.5,278.9,374.1,276.8,377.2,272.4L377.2,272.4z"/></g></g></g></svg>
