<!DOCTYPE svg PUBLIC "-//W3C//DTD SVG 1.1//EN" "http://www.w3.org/Graphics/SVG/1.1/DTD/svg11.dtd">

<!-- Uploaded to: SVG Repo, www.svgrepo.com, Transformed by: SVG Repo Mixer Tools -->
<svg
    id="MOBILE"
    width="800px"
    version="1.1"
    height="800px"
    fill="#656565"
    xml:space="preserve"
    viewBox="0 0 1800 1800"
    xmlns="http://www.w3.org/2000/svg"
    enable-background="new 0 0 1800 1800"
    xmlns:xlink="http://www.w3.org/1999/xlink"
>

<g id="SVGRepo_bgCarrier" stroke-width="0"/>

<g id="SVGRepo_tracerCarrier" stroke-linecap="round" stroke-linejoin="round"/>

<g id="SVGRepo_iconCarrier"> <g> <path fill="#656565" d="M1346.861,3.943h-893.72c-45.89,0-83.232,37.339-83.232,83.229v1625.653 c0,45.891,37.342,83.23,83.232,83.23h893.72c45.891,0,83.229-37.34,83.229-83.23V87.173 C1430.091,41.283,1392.752,3.943,1346.861,3.943z M453.141,66.61h893.72c11.34,0,20.563,9.223,20.563,20.563v172.719H432.578 V87.173C432.578,75.833,441.801,66.61,453.141,66.61z M1367.424,291.234v1169.788H432.578V291.234H1367.424z M1346.861,1733.39 h-893.72c-11.34,0-20.563-9.224-20.563-20.563v-220.47h934.846v220.47C1367.424,1724.166,1358.201,1733.39,1346.861,1733.39z"/> <path fill="#656565" d="M949.946,143.519h-43.739h-12.412h-43.74c-8.655,0-15.667,7.012-15.667,15.667 c0,8.646,7.012,15.667,15.667,15.667h43.74h12.412h43.739c8.655,0,15.667-7.021,15.667-15.667 C965.613,150.531,958.602,143.519,949.946,143.519z"/> <path fill="#656565" d="M900.002,1538.701c-39.779,0-72.144,32.355-72.144,72.135c0,39.778,32.365,72.145,72.144,72.145 c39.777,0,72.142-32.366,72.142-72.145C972.144,1571.057,939.779,1538.701,900.002,1538.701z M900.002,1651.646 c-22.503,0-40.81-18.307-40.81-40.811c0-22.495,18.307-40.802,40.81-40.802c22.501,0,40.809,18.307,40.809,40.802 C940.811,1633.34,922.503,1651.646,900.002,1651.646z"/> </g> </g>

</svg>